<svg width="186" height="22" viewBox="0 0 186 22" fill="none" xmlns="http://www.w3.org/2000/svg">
<g clip-path="url(#clip0_1_437)">
<rect x="4.70931" y="0.207782" width="2.42361" height="5.15971" rx="0.173115" transform="rotate(13.0714 4.70931 0.207782)" fill="black" stroke="black" stroke-width="0.34623"/>
<rect x="7.66215" y="3.12981" width="2.42361" height="4.50099" rx="0.173115" transform="rotate(-90 7.66215 3.12981)" fill="black" stroke="black" stroke-width="0.34623"/>
<rect x="9.04792" y="11.4379" width="2.42361" height="3.11607" transform="rotate(-90 9.04792 11.4379)" fill="black" stroke="black" stroke-width="0.34623"/>
<rect x="3.27965" y="6.36872" width="2.42361" height="6.8628" rx="0.173115" transform="rotate(13.0714 3.27965 6.36872)" fill="black" stroke="black" stroke-width="0.34623"/>
<rect x="1.44876" y="14.2558" width="2.42361" height="5.48544" rx="0.173115" transform="rotate(13.0714 1.44876 14.2558)" fill="black" stroke="black" stroke-width="0.34623"/>
<path d="M3.67844 18.6894C3.55223 18.6252 3.55211 18.4448 3.67844 18.3808L6.71945 16.8446C6.83452 16.7865 6.97025 16.8701 6.97043 16.9989V20.0712C6.97043 20.2002 6.8346 20.2837 6.71945 20.2255L3.67844 18.6894Z" fill="black" stroke="black" stroke-width="0.34623"/>
<path d="M5.75578 10.38C5.62957 10.3158 5.62946 10.1355 5.75578 10.0714L8.7968 8.53526C8.91186 8.47715 9.04759 8.56071 9.04777 8.68956V11.7618C9.04777 11.8908 8.91194 11.9743 8.7968 11.9161L5.75578 10.38Z" fill="black" stroke="black" stroke-width="0.34623"/>
<rect x="6.97059" y="19.7471" width="2.42361" height="5.19345" rx="0.173115" transform="rotate(-90 6.97059 19.7471)" fill="black" stroke="black" stroke-width="0.34623"/>
<mask id="path-9-inside-1_1_437" fill="white">
<path d="M11.8248 8.84492C12.5749 8.84545 13.3176 8.98914 14.0104 9.26778C14.7032 9.54642 15.3326 9.95455 15.8626 10.4689C16.3926 10.9832 16.8129 11.5936 17.0995 12.2653C17.3861 12.937 17.5333 13.6569 17.5328 14.3837C17.5323 15.1105 17.384 15.8301 17.0965 16.5014C16.809 17.1727 16.3878 17.7825 15.857 18.2961C15.3263 18.8097 14.6963 19.2169 14.0031 19.4946C13.3099 19.7722 12.567 19.9148 11.8169 19.9143L11.8189 17.1512C12.1945 17.1515 12.5665 17.0801 12.9137 16.941C13.2608 16.802 13.5763 16.5981 13.8421 16.3409C14.1078 16.0837 14.3188 15.7783 14.4627 15.4421C14.6067 15.106 14.681 14.7456 14.6812 14.3817C14.6815 14.0177 14.6078 13.6572 14.4643 13.3208C14.3207 12.9845 14.1103 12.6788 13.8448 12.4212C13.5794 12.1637 13.2642 11.9593 12.9173 11.8198C12.5704 11.6802 12.1985 11.6083 11.8228 11.608L11.8248 8.84492Z"/>
</mask>
<path d="M11.8248 8.84492C12.5749 8.84545 13.3176 8.98914 14.0104 9.26778C14.7032 9.54642 15.3326 9.95455 15.8626 10.4689C16.3926 10.9832 16.8129 11.5936 17.0995 12.2653C17.3861 12.937 17.5333 13.6569 17.5328 14.3837C17.5323 15.1105 17.384 15.8301 17.0965 16.5014C16.809 17.1727 16.3878 17.7825 15.857 18.2961C15.3263 18.8097 14.6963 19.2169 14.0031 19.4946C13.3099 19.7722 12.567 19.9148 11.8169 19.9143L11.8189 17.1512C12.1945 17.1515 12.5665 17.0801 12.9137 16.941C13.2608 16.802 13.5763 16.5981 13.8421 16.3409C14.1078 16.0837 14.3188 15.7783 14.4627 15.4421C14.6067 15.106 14.681 14.7456 14.6812 14.3817C14.6815 14.0177 14.6078 13.6572 14.4643 13.3208C14.3207 12.9845 14.1103 12.6788 13.8448 12.4212C13.5794 12.1637 13.2642 11.9593 12.9173 11.8198C12.5704 11.6802 12.1985 11.6083 11.8228 11.608L11.8248 8.84492Z" fill="black" stroke="black" stroke-width="0.69246" mask="url(#path-9-inside-1_1_437)"/>
<mask id="path-10-inside-2_1_437" fill="white">
<path d="M11.8248 0.535737C12.5749 0.536271 13.3176 0.679959 14.0104 0.958597C14.7032 1.23723 15.3326 1.64537 15.8626 2.15969C16.3926 2.67401 16.8129 3.28445 17.0995 3.95615C17.3861 4.62786 17.5333 5.34767 17.5328 6.0745C17.5323 6.80133 17.384 7.52093 17.0965 8.19223C16.809 8.86352 16.3878 9.47337 15.857 9.98693C15.3263 10.5005 14.6963 10.9077 14.0031 11.1854C13.3099 11.463 12.567 11.6057 11.8169 11.6051L11.8189 8.84205C12.1945 8.84232 12.5665 8.77089 12.9137 8.63185C13.2608 8.49281 13.5763 8.28888 13.8421 8.0317C14.1078 7.77452 14.3188 7.46913 14.4627 7.13297C14.6067 6.7968 14.681 6.43644 14.6812 6.07247C14.6815 5.7085 14.6078 5.34803 14.4643 5.01166C14.3207 4.67529 14.1103 4.3696 13.8448 4.11205C13.5794 3.85449 13.2642 3.65011 12.9173 3.51057C12.5704 3.37104 12.1985 3.29909 11.8228 3.29882L11.8248 0.535737Z"/>
</mask>
<path d="M11.8248 0.535737C12.5749 0.536271 13.3176 0.679959 14.0104 0.958597C14.7032 1.23723 15.3326 1.64537 15.8626 2.15969C16.3926 2.67401 16.8129 3.28445 17.0995 3.95615C17.3861 4.62786 17.5333 5.34767 17.5328 6.0745C17.5323 6.80133 17.384 7.52093 17.0965 8.19223C16.809 8.86352 16.3878 9.47337 15.857 9.98693C15.3263 10.5005 14.6963 10.9077 14.0031 11.1854C13.3099 11.463 12.567 11.6057 11.8169 11.6051L11.8189 8.84205C12.1945 8.84232 12.5665 8.77089 12.9137 8.63185C13.2608 8.49281 13.5763 8.28888 13.8421 8.0317C14.1078 7.77452 14.3188 7.46913 14.4627 7.13297C14.6067 6.7968 14.681 6.43644 14.6812 6.07247C14.6815 5.7085 14.6078 5.34803 14.4643 5.01166C14.3207 4.67529 14.1103 4.3696 13.8448 4.11205C13.5794 3.85449 13.2642 3.65011 12.9173 3.51057C12.5704 3.37104 12.1985 3.29909 11.8228 3.29882L11.8248 0.535737Z" fill="black" stroke="black" stroke-width="0.69246" mask="url(#path-10-inside-2_1_437)"/>
</g>
<path d="M20.0743 19V5.67707H23.5331V19H20.0743ZM19.7156 2.52569C19.7156 1.42398 20.6123 0.501624 21.7909 0.501624C22.9951 0.501624 23.8662 1.42398 23.8662 2.52569C23.8662 3.67863 22.9951 4.57537 21.7909 4.57537C20.6123 4.57537 19.7156 3.65301 19.7156 2.52569ZM30.5569 19C27.9179 19 26.4832 17.7702 26.4832 14.875V8.62349H24.6128V5.67707H26.4832V2.98686L29.942 2.62817V5.67707H32.7603V8.62349H29.942V14.6957C29.942 15.5412 30.3519 15.9255 31.0181 15.9255H32.4528V19H30.5569ZM38.2826 19.3331C36.028 19.3331 34.2089 18.5644 32.7485 17.0016L35.08 14.875C36.0536 15.9767 37.0785 16.5148 38.2058 16.5148C39.3843 16.5148 40.0505 15.9255 40.0505 15.1312C40.0505 14.4395 39.7174 14.0551 37.6165 13.5683C34.0552 12.7229 33.5171 11.1087 33.5171 9.41774C33.5171 7.08623 35.3618 5.344 38.4876 5.344C40.6398 5.344 42.0746 5.88204 43.4325 7.64989L40.9216 9.57146C40.2811 8.54662 39.4612 8.13669 38.5645 8.13669C37.6165 8.13669 36.8991 8.49538 36.8991 9.31525C36.8991 9.77643 37.1041 10.1864 38.6926 10.5963C42.5614 11.5955 43.4581 13.0303 43.4581 15.0287C43.4581 17.4884 41.2291 19.3331 38.2826 19.3331ZM51.091 19.3331C47.2734 19.3331 44.2245 16.2073 44.2245 12.3385C44.2245 8.46976 47.1966 5.36962 51.2703 5.344C53.7043 5.31838 55.6771 6.26635 56.8044 7.82924L54.1399 10.007C53.525 9.08467 52.5001 8.49538 51.3215 8.49538C49.1181 8.49538 47.6834 10.2632 47.6834 12.3385C47.6834 14.4138 49.195 16.1817 51.3984 16.1817C52.7307 16.1817 53.6018 15.5155 54.2936 14.5932L56.8044 16.771C55.549 18.3851 53.7043 19.3331 51.091 19.3331ZM63.3252 19.3331C59.6614 19.3331 56.7406 16.2329 56.7406 12.3898C56.7406 8.54662 59.6614 5.39524 63.3252 5.39524C65.6311 5.39524 66.8353 6.34322 67.5527 7.77799V5.67707H70.9859V19H67.6295V16.8222C66.9121 18.3339 65.708 19.3331 63.3252 19.3331ZM60.1994 12.3642C60.1994 14.3882 61.6855 16.2073 63.8889 16.2073C66.1691 16.2073 67.6295 14.4651 67.6295 12.3898C67.6295 10.3145 66.1691 8.521 63.8889 8.521C61.6855 8.521 60.1994 10.2889 60.1994 12.3642ZM72.9717 19V0.296657H76.4306V19H72.9717ZM84.7866 19.3331C80.6616 19.3331 77.8946 16.2073 77.8946 12.3642C77.8946 8.521 80.7897 5.344 84.7866 5.344C88.7835 5.344 91.5506 8.521 91.5506 12.3642C91.5506 12.7485 91.525 13.1584 91.4481 13.594H81.4815C81.8658 15.1568 83.0444 16.2586 84.7866 16.2586C86.2726 16.2586 87.4256 15.4899 88.0405 14.4651L90.7307 16.4891C89.6546 18.1545 87.4256 19.3331 84.7866 19.3331ZM81.4815 11.0062H88.0661C87.6818 9.52022 86.4264 8.31604 84.7354 8.31604C83.0956 8.31604 81.8658 9.41774 81.4815 11.0062Z" fill="black"/>
<defs>
<clipPath id="clip0_1_437">
<rect width="17.6577" height="20.4276" fill="white"/>
</clipPath>
</defs>
</svg>
